# xmcd
# Copyright (C) 1995-1998 Ti Kan
#
# Track frame offsets:
#       150
#       1991
#       19821
#       31856
#       37236
#       81929
#       102912
#       117758
#       128708
#       145636
#       159356
#       171179
#
# Disc length: 2588 seconds
#
# Revision: 0
# Processed by: cddbd v1.5.2PL0 Copyright (c) Steve Scherf et al.
# Submitted via: CD-Import v1.0
#
DISCID=8e0a1a0c
DTITLE=Lightspeed Champion - Falling Off The Lavender Bridge
DYEAR=2007
DGENRE=
TTITLE0=Number One
TTITLE1=Galaxy Of The Lost
TTITLE2=Tell Me What It's Worth
TTITLE3=All To Shit
TTITLE4=Midnight Surprise
TTITLE5=Devil Tricks For A Bitch
TTITLE6=I Could Have Done This Myself
TTITLE7=Salty Water
TTITLE8=Dry Lips
TTITLE9=Everyone I Konw Is Listening To Crunk
TTITLE10=Let The Bitches Die
TTITLE11=No Surprise (For Wendela)
EXTD=
EXTT0=
EXTT1=
EXTT2=
EXTT3=
EXTT4=
EXTT5=
EXTT6=
EXTT7=
EXTT8=
EXTT9=
EXTT10=
EXTT11=
PLAYORDER=
